<svg width="172" height="38" viewBox="0 0 172 38" fill="none" xmlns="http://www.w3.org/2000/svg">
<g clip-path="url(#clip0)">
<path d="M5.69861 2.7968V9.424C6.31136 8.3904 7.23049 7.5392 8.39473 6.8704C9.37513 6.3232 10.6006 6.0192 12.0712 6.0192C14.7061 6.0192 16.8507 7.1136 18.5052 9.2416C20.1596 11.4304 21.0175 14.2272 21.0175 17.632C21.0175 21.0976 20.1596 23.8944 18.5052 26.0224C17.6473 27.056 16.5444 27.8464 15.135 28.3328C13.7257 28.8192 12.3163 29.0624 10.907 29.0624C8.2109 29.0624 5.75989 28.3936 3.43142 26.9952C1.16423 25.5968 0 22.9824 0 19.0304V0H2.81867C3.61525 0 4.28928 0.304 4.84075 0.8512C5.39223 1.3984 5.69861 2.0672 5.69861 2.7968ZM15.2576 17.4496C15.2576 15.4432 14.8286 13.9232 13.9708 12.768C13.1129 11.6128 12.01 11.0048 10.5394 11.0048C8.94621 11.0048 7.78197 11.552 6.92412 12.6464C6.06626 13.8016 5.63733 15.3824 5.63733 17.3888C5.63733 19.6992 6.00499 21.4016 6.80157 22.4352C7.65942 23.5904 8.82365 24.1984 10.2943 24.1984C11.8261 24.1984 13.0517 23.5904 13.9095 22.4352C14.8286 21.3408 15.2576 19.6992 15.2576 17.4496Z" fill="#0B0D17"/>
<path d="M23.4072 0.060791H26.4097C27.2063 0.060791 27.8803 0.364791 28.4318 0.911991C28.9833 1.45919 29.2897 2.12799 29.2897 2.91839V4.68159H23.4072V0.060791ZM23.4072 6.56639H26.4097C27.2063 6.56639 27.8803 6.87039 28.4318 7.41759C28.9833 7.96479 29.2897 8.63359 29.2897 9.42399V28.6976H23.4072V6.56639Z" fill="#0B0D17"/>
<path d="M32.1696 28.6976V17.936C32.1696 15.7472 32.4759 13.984 33.15 12.464C33.7627 11.0048 34.6818 9.78882 35.7848 8.93762C36.8265 8.08642 38.1133 7.47842 39.5226 7.11362C40.9319 6.74882 42.4025 6.50562 43.9344 6.50562C44.057 6.50562 44.1795 6.50562 44.3634 6.50562C44.5472 6.50562 44.6697 6.50562 44.7923 6.50562V12.4032H42.8927C41.2996 12.4032 40.0741 12.768 39.2775 13.5584C38.4809 14.3488 38.1133 15.5648 38.1133 17.2064V28.576H32.1696V28.6976Z" fill="#0B0D17"/>
<path d="M60.969 0H63.7877C64.5842 0 65.2583 0.304 65.8097 0.8512C66.3612 1.4592 66.6676 2.0672 66.6676 2.7968V19.0304C66.6676 22.9824 65.5034 25.5968 63.2362 26.9952C60.969 28.3936 58.4567 29.0624 55.7606 29.0624C54.29 29.0624 52.8806 28.8192 51.4713 28.3328C50.062 27.8464 48.959 27.1168 48.1012 26.0224C46.508 23.9552 45.6501 21.1584 45.6501 17.632C45.6501 14.1664 46.4467 11.3696 48.1012 9.2416C49.7556 7.0528 51.9002 6.0192 54.5351 6.0192C55.9444 6.0192 57.1699 6.3232 58.2116 6.8704C59.3146 7.5392 60.2337 8.3904 60.9077 9.424V0H60.969ZM51.41 17.4496C51.41 19.6384 51.839 21.3408 52.6968 22.496C53.5547 23.6512 54.7189 24.2592 56.3121 24.2592C57.8439 24.2592 59.0082 23.6512 59.8048 22.496C60.6013 21.3408 60.969 19.6384 60.969 17.4496C60.969 15.4432 60.5401 13.8624 59.7435 12.7072C58.8244 11.6128 57.6601 11.0656 56.1282 11.0656C54.6576 11.0656 53.5547 11.6736 52.6968 12.8288C51.839 13.9232 51.41 15.4432 51.41 17.4496Z" fill="#0B0D17"/>
<path d="M92.6483 28.6976H86.7659L83.3345 12.8896L79.903 28.6976H74.0206L67.8931 6.56641H73.5917L77.0844 21.888L80.2707 6.56641H86.2144L89.2169 21.888L92.3419 8.57281C92.6483 7.23521 93.5675 6.56641 95.0381 6.56641H98.7146L92.6483 28.6976Z" fill="#8C30F5"/>
<path d="M100.43 0.060791H103.433C104.229 0.060791 104.903 0.364791 105.455 0.911991C106.006 1.45919 106.313 2.12799 106.313 2.91839V4.68159H100.43V0.060791ZM100.43 6.56639H103.433C104.229 6.56639 104.903 6.87039 105.455 7.41759C106.006 7.96479 106.313 8.63359 106.313 9.42399V28.6976H100.43V6.56639Z" fill="#8C30F5"/>
<path d="M128.066 28.6976H125.124C124.266 28.6976 123.592 28.4544 123.102 27.9072C122.551 27.36 122.306 26.6912 122.306 25.9008V14.5312C122.306 13.1936 121.877 12.2208 121.08 11.6128C120.284 11.0048 119.364 10.7008 118.384 10.7008C117.404 10.7008 116.484 11.0048 115.688 11.6128C114.891 12.2208 114.524 13.1936 114.524 14.5312V28.6368H108.641V15.6864C108.641 11.9168 109.622 9.42402 111.644 8.14722C113.605 6.87042 115.81 6.20162 118.2 6.08002C120.651 6.08002 122.918 6.68802 125.002 7.96482C127.085 9.24162 128.127 11.7952 128.127 15.6864V28.6976H128.066Z" fill="#8C30F5"/>
<path d="M145.223 27.36V25.9616C144.242 27.5424 142.894 28.4544 141.178 28.88C139.463 29.2448 137.808 29.1232 136.093 28.4544C134.438 27.7856 132.968 26.5696 131.803 24.7456C130.578 22.9216 130.026 20.5504 130.026 17.632C130.026 14.2272 130.823 11.4304 132.416 9.30242C134.009 7.17442 136.583 6.08002 140.076 6.08002C142.772 6.08002 145.223 6.80962 147.551 8.26882C149.818 9.72802 150.983 12.3424 150.983 16.2336V27.968C150.983 31.8592 149.818 34.4736 147.551 35.9328C145.284 37.3312 142.772 38.0608 140.076 38.0608C134.928 38.0608 131.742 35.6896 130.517 30.8864H136.644C137.073 31.6768 137.747 32.2848 138.666 32.6496C139.585 33.0752 140.504 33.1968 141.424 32.9536C142.343 32.7712 143.201 32.224 143.936 31.312C144.671 30.4608 145.1 29.1232 145.223 27.36ZM135.664 17.8144C135.664 21.6448 136.767 23.7728 139.034 24.1984C141.24 24.624 142.894 24.0768 143.997 22.6784C144.487 22.0704 144.855 21.0976 145.1 19.8208C145.345 18.544 145.345 17.2064 145.161 15.9296C144.978 14.6528 144.487 13.4976 143.752 12.5248C143.017 11.552 141.975 11.0048 140.566 11.0048C138.666 11.0048 137.379 11.6736 136.705 13.072C135.97 14.4096 135.664 15.9904 135.664 17.8144Z" fill="#8C30F5"/>
<path d="M152.269 21.3408H157.968C158.029 22.4352 158.458 23.2864 159.255 23.8336C160.113 24.3808 161.215 24.6848 162.625 24.6848C163.605 24.6848 164.524 24.5024 165.198 24.0768C165.872 23.712 166.179 23.1648 166.179 22.496C166.179 21.5232 165.015 20.7328 162.686 20.2464C161.706 20.064 160.909 19.9424 160.419 19.76C157.478 19.0304 155.456 18.1792 154.475 17.2064C153.372 16.2336 152.821 14.896 152.821 13.1936C152.821 11.0656 153.617 9.36322 155.272 7.96482C156.926 6.68802 159.132 6.08002 161.828 6.08002C164.708 6.08002 167.037 6.68802 168.752 7.96482C170.346 9.36322 171.265 11.1264 171.326 13.376H167.711C166.669 13.376 165.811 12.8896 165.26 11.9776C165.015 11.7344 164.831 11.552 164.586 11.3088C163.912 10.8224 162.992 10.5792 161.828 10.5792C160.725 10.5792 159.867 10.7616 159.316 11.0656C158.826 11.3696 158.581 11.9168 158.581 12.5856C158.581 13.4976 160.051 14.2272 162.931 14.8352C163.238 14.9568 163.544 15.0176 163.789 15.0784C164.034 15.1392 164.279 15.1392 164.524 15.1392C167.343 15.8688 169.365 16.72 170.468 17.632C171.51 18.6048 172.061 19.9424 172.061 21.6448C172.061 24.0768 171.142 25.9616 169.365 27.2992C167.711 28.5152 165.198 29.1232 161.828 29.1232C158.642 29.1232 156.252 28.5152 154.72 27.2384C153.127 25.9616 152.269 24.1376 152.269 21.6448V21.3408Z" fill="#8C30F5"/>
</g>
<defs>
<clipPath id="clip0">
<rect width="172" height="38" fill="white"/>
</clipPath>
</defs>
</svg>
